<svg width="20" height="20" viewBox="0 0 20 20" fill="none" xmlns="http://www.w3.org/2000/svg">
<g clip-path="url(#clip0)">
<path d="M14.5455 0.909088H5.45455C2.94416 0.909088 0.909091 2.94416 0.909091 5.45454V14.5455C0.909091 17.0558 2.94416 19.0909 5.45455 19.0909H14.5455C17.0558 19.0909 19.0909 17.0558 19.0909 14.5455V5.45454C19.0909 2.94416 17.0558 0.909088 14.5455 0.909088Z" stroke="black" stroke-width="2" stroke-linecap="round" stroke-linejoin="round"/>
<path d="M13.6364 9.42727C13.7485 10.1838 13.6194 10.9565 13.2671 11.6355C12.9148 12.3144 12.3574 12.8649 11.6742 13.2088C10.991 13.5526 10.2167 13.6724 9.46164 13.5508C8.70647 13.4294 8.00887 13.0728 7.46804 12.532C6.92719 11.9911 6.57066 11.2935 6.44915 10.5384C6.32764 9.78318 6.44733 9.00899 6.7912 8.32579C7.13507 7.64259 7.68562 7.08522 8.36453 6.73294C9.04344 6.38067 9.81618 6.25144 10.5727 6.36364C11.3445 6.47807 12.0589 6.83769 12.6106 7.38936C13.1623 7.94104 13.5219 8.65552 13.6364 9.42727Z" stroke="black" stroke-width="2" stroke-linecap="round" stroke-linejoin="round"/>
<path d="M15 5H15.01" stroke="black" stroke-width="2" stroke-linecap="round" stroke-linejoin="round"/>
</g>
<defs>
<clipPath id="clip0">
<rect width="20" height="20" fill="white"/>
</clipPath>
</defs>
</svg>
