<svg width="21" height="21" viewBox="0 0 21 21" fill="none" xmlns="http://www.w3.org/2000/svg">
<path fill-rule="evenodd" clip-rule="evenodd" d="M17.0988 2.99515C15.2937 1.18439 12.7909 0.0659943 10.028 0.0659943C7.27058 0.0659943 4.76793 1.18439 2.95722 2.9951C1.14652 4.80569 0.0279999 7.30293 0.0279999 10.0659C0.0279999 12.8288 1.14647 15.3262 2.95722 17.1368C4.76793 18.9476 7.27058 20.066 10.028 20.066C12.7909 20.066 15.2937 18.9476 17.0988 17.1368C18.9094 15.3262 20.028 12.8288 20.028 10.0659C20.028 7.30297 18.9094 4.80573 17.0988 2.99515ZM16.5508 16.5831C14.8784 18.2554 12.5751 19.2853 10.028 19.2853C7.48655 19.2853 5.17758 18.2554 3.51104 16.5831C1.84421 14.9166 0.80884 12.6131 0.80884 10.066C0.80884 7.51895 1.84421 5.21556 3.51104 3.54893C5.17754 1.87663 7.48651 0.846796 10.028 0.846796C12.5751 0.846796 14.8783 1.87663 16.5507 3.54893C18.2173 5.21556 19.2472 7.51895 19.2472 10.066C19.2472 12.6131 18.2174 14.9166 16.5508 16.5831Z" fill="black"/>
<path fill-rule="evenodd" clip-rule="evenodd" d="M10.2717 4.9664C7.40361 4.9664 5.9473 6.95421 5.9473 8.62088C5.9473 8.93089 5.98051 9.22997 6.05803 9.50125C6.22971 10.1269 6.60068 10.6308 7.18768 10.8635C7.32601 10.9243 7.45333 10.8635 7.48655 10.7196C7.51989 10.6143 7.58054 10.3595 7.61396 10.2488C7.65827 10.0992 7.6416 10.0495 7.53086 9.92212C7.38698 9.75036 7.26512 9.55656 7.19872 9.31295C7.15438 9.15236 7.12666 8.97519 7.12666 8.77038C7.12666 7.29193 8.27277 5.96297 10.1112 5.96297C11.7335 5.96297 12.6306 6.92091 12.6306 8.2056C12.6306 8.58779 12.5917 8.94764 12.5197 9.29086C12.2652 10.4703 11.6007 11.3231 10.7091 11.3231C10.0779 11.3231 9.59617 10.819 9.7513 10.1933C9.83995 9.84477 9.96715 9.47912 10.078 9.12473C10.1943 8.75367 10.2939 8.39386 10.2939 8.11703C10.2939 7.62973 10.0281 7.23666 9.46901 7.23666C8.82096 7.23666 8.30061 7.89005 8.30061 8.75363C8.30061 8.91434 8.31699 9.06938 8.33925 9.18554C8.40018 9.49571 8.49437 9.68397 8.49437 9.68397C8.49437 9.68397 7.82998 12.4027 7.71912 12.879C7.48659 13.8312 7.6859 14.9884 7.70261 15.1048C7.70816 15.171 7.80214 15.1878 7.84661 15.1379C7.90742 15.0606 8.67696 14.1467 8.94283 13.2222C9.00926 12.9563 9.36928 11.6054 9.36928 11.6054C9.57421 11.9987 10.1887 12.3418 10.8476 12.3418C12.4255 12.3418 13.5995 11.1956 13.9815 9.52897C14.07 9.15236 14.1144 8.74258 14.1144 8.32192C14.1144 6.57765 12.5917 4.9664 10.2717 4.9664Z" fill="black"/>
</svg>
