<svg width="480" height="480" viewBox="0 0 480 480" fill="none" xmlns="http://www.w3.org/2000/svg">
<path fill-rule="evenodd" clip-rule="evenodd" d="M409.614 70.346C366.305 26.9 306.253 0.0659943 239.962 0.0659943C173.802 0.0659943 113.755 26.9 70.31 70.345C26.865 113.787 0.0279999 173.704 0.0279999 239.997C0.0279999 306.289 26.864 366.208 70.31 409.651C113.755 453.098 173.802 479.932 239.962 479.932C306.253 479.932 366.304 453.098 409.614 409.651C453.057 366.208 479.896 306.289 479.896 239.997C479.896 173.705 453.058 113.788 409.614 70.346V70.346ZM396.465 396.365C356.339 436.491 301.076 461.2 239.963 461.2C178.984 461.2 123.584 436.491 83.598 396.365C43.605 356.381 18.763 301.113 18.763 239.998C18.763 178.887 43.605 123.621 83.598 83.633C123.583 43.509 178.983 18.8 239.962 18.8C301.076 18.8 356.338 43.509 396.464 83.633C436.452 123.621 461.162 178.887 461.162 239.998C461.163 301.113 436.453 356.381 396.465 396.365Z" fill="white"/>
<path fill-rule="evenodd" clip-rule="evenodd" d="M245.809 117.643C176.994 117.643 142.052 165.337 142.052 205.326C142.052 212.764 142.849 219.94 144.709 226.449C148.828 241.461 157.729 253.551 171.813 259.134C175.132 260.592 178.187 259.134 178.984 255.68C179.784 253.154 181.239 247.04 182.041 244.385C183.104 240.796 182.704 239.604 180.047 236.547C176.595 232.426 173.671 227.776 172.078 221.931C171.014 218.078 170.349 213.827 170.349 208.913C170.349 173.44 197.848 141.554 241.958 141.554C280.882 141.554 302.407 164.538 302.407 195.362C302.407 204.532 301.474 213.166 299.747 221.401C293.639 249.7 277.697 270.16 256.305 270.16C241.16 270.16 229.601 258.065 233.323 243.054C235.45 234.691 238.502 225.918 241.161 217.415C243.951 208.512 246.341 199.879 246.341 193.237C246.341 181.545 239.965 172.114 226.55 172.114C211.001 172.114 198.516 187.791 198.516 208.511C198.516 212.367 198.909 216.087 199.443 218.874C200.905 226.316 203.165 230.833 203.165 230.833C203.165 230.833 187.224 296.065 184.564 307.493C178.985 330.339 183.767 358.104 184.168 360.896C184.301 362.486 186.556 362.888 187.623 361.691C189.082 359.837 207.546 337.909 213.925 315.726C215.519 309.348 224.157 276.935 224.157 276.935C229.074 286.37 243.818 294.603 259.626 294.603C297.485 294.603 325.654 267.102 334.819 227.114C336.944 218.078 338.008 208.246 338.008 198.153C338.008 156.302 301.474 117.643 245.809 117.643V117.643Z" fill="#FFFCFC"/>
</svg>
