<svg width="20" height="16" viewBox="0 0 20 16" fill="none" xmlns="http://www.w3.org/2000/svg">
<path d="M20 1.91691C19.2483 2.23737 18.4534 2.44921 17.64 2.54585C18.4982 2.04203 19.1413 1.24942 19.45 0.315063C18.6436 0.786834 17.7608 1.11923 16.84 1.29779C16.2245 0.64189 15.405 0.205288 14.5098 0.0564594C13.6147 -0.0923697 12.6945 0.0549921 11.8938 0.475433C11.093 0.895874 10.4569 1.56561 10.0852 2.37961C9.71355 3.19361 9.62729 4.10582 9.84 4.97319C8.20943 4.89214 6.61444 4.4749 5.15865 3.74857C3.70287 3.02225 2.41885 2.00309 1.39 0.75729C1.02914 1.37657 0.839519 2.0779 0.84 2.79153C0.83872 3.45427 1.00422 4.10703 1.32176 4.6917C1.63929 5.27637 2.09902 5.77481 2.66 6.14263C2.00798 6.1252 1.36989 5.95326 0.8 5.64144V5.69058C0.804887 6.61915 1.13599 7.51756 1.73731 8.23384C2.33864 8.95013 3.17326 9.44031 4.1 9.62149C3.74326 9.72818 3.37288 9.78443 3 9.78855C2.74189 9.78559 2.48442 9.76259 2.23 9.71976C2.49391 10.5185 3.00462 11.2166 3.69107 11.7168C4.37753 12.217 5.20558 12.4945 6.06 12.5107C4.6172 13.6264 2.83588 14.2352 1 14.2403C0.665735 14.2414 0.331736 14.2217 0 14.1813C1.87443 15.3707 4.05881 16.0021 6.29 15.9994C7.82969 16.0151 9.35714 15.7292 10.7831 15.1583C12.2091 14.5873 13.505 13.7429 14.5952 12.6743C15.6854 11.6057 16.548 10.3343 17.1326 8.93447C17.7172 7.53459 18.012 6.03427 18 4.52113C18 4.35407 18 4.17718 18 4.00029C18.7847 3.42521 19.4615 2.72021 20 1.91691V1.91691Z" fill="black"/>
</svg>
