<svg width="20" height="14" viewBox="0 0 20 14" fill="none" xmlns="http://www.w3.org/2000/svg">
<path d="M19.9954 4.93403C20.0403 3.63859 19.7559 2.35285 19.1687 1.19618C18.7702 0.721576 18.2172 0.401292 17.606 0.291139C15.0781 0.0626375 12.5397 -0.0310186 10.0017 0.0105737C7.47298 -0.0329057 4.94372 0.0577267 2.42467 0.282089C1.92664 0.372337 1.46574 0.605047 1.09823 0.95182C0.280568 1.70301 0.189716 2.98818 0.0988647 4.07424C-0.0329549 6.02694 -0.0329549 7.98625 0.0988647 9.93896C0.125148 10.5502 0.216509 11.157 0.37142 11.7491C0.48096 12.2062 0.702593 12.629 1.01647 12.9799C1.38647 13.3451 1.8581 13.591 2.37016 13.6859C4.32884 13.9267 6.30241 14.0265 8.27552 13.9845C11.4553 14.0298 14.2445 13.9845 17.5424 13.7311C18.0671 13.6421 18.5519 13.3958 18.9324 13.0252C19.1868 12.7717 19.3768 12.4614 19.4866 12.1201C19.8115 11.1269 19.9711 10.0875 19.9591 9.04297C19.9954 8.53612 19.9954 5.47706 19.9954 4.93403ZM7.94846 9.58599V3.98373L13.3269 6.79843C11.8187 7.63107 9.82909 8.57233 7.94846 9.58599Z" fill="black"/>
</svg>
